<svg width="95" height="25" viewBox="0 0 95 25" fill="none" xmlns="http://www.w3.org/2000/svg">
<path fill-rule="evenodd" clip-rule="evenodd" d="M5.27586 15.8038C5.27586 17.2581 4.10213 18.4319 2.64782 18.4319C1.1935 18.4319 0.0197754 17.2542 0.0197754 15.8038C0.0197754 14.3535 1.1935 13.1758 2.64782 13.1758H5.27586V15.8038ZM6.58791 15.8038C6.58791 14.3495 7.76164 13.1758 9.21595 13.1758C10.6703 13.1758 11.844 14.3495 11.844 15.8038V22.372C11.844 23.8263 10.6703 25 9.21595 25C7.76164 25 6.58791 23.8263 6.58791 22.372V15.8038Z" fill="#E01E5A"/>
<path fill-rule="evenodd" clip-rule="evenodd" d="M9.21593 5.25609C7.76162 5.25609 6.58789 4.08236 6.58789 2.62804C6.58789 1.17373 7.76162 0 9.21593 0C10.6702 0 11.844 1.17373 11.844 2.62804V5.25609H9.21593ZM9.21593 6.58789C10.6702 6.58789 11.844 7.76162 11.844 9.21593C11.844 10.6702 10.6702 11.844 9.21593 11.844H2.62804C1.17373 11.844 0 10.6663 0 9.21593C0 7.76557 1.17373 6.58789 2.62804 6.58789H9.21593Z" fill="#36C5F0"/>
<path fill-rule="evenodd" clip-rule="evenodd" d="M19.7439 9.21593C19.7439 7.76162 20.9176 6.58789 22.372 6.58789C23.8263 6.58789 25 7.76162 25 9.21593C25 10.6702 23.8263 11.844 22.372 11.844H19.7439V9.21593ZM18.4319 9.21593C18.4319 10.6702 17.2581 11.844 15.8038 11.844C14.3495 11.844 13.1758 10.6702 13.1758 9.21593V2.62804C13.1758 1.17373 14.3495 0 15.8038 0C17.2581 0 18.4319 1.17373 18.4319 2.62804V9.21593Z" fill="#2EB67D"/>
<path fill-rule="evenodd" clip-rule="evenodd" d="M15.8038 19.7439C17.2581 19.7439 18.4319 20.9176 18.4319 22.372C18.4319 23.8263 17.2581 25 15.8038 25C14.3495 25 13.1758 23.8263 13.1758 22.372V19.7439H15.8038ZM15.8038 18.4319C14.3495 18.4319 13.1758 17.2581 13.1758 15.8038C13.1758 14.3495 14.3495 13.1758 15.8038 13.1758H22.3917C23.846 13.1758 25.0198 14.3495 25.0198 15.8038C25.0198 17.2581 23.846 18.4319 22.3917 18.4319H15.8038Z" fill="#ECB22E"/>
</svg>
